<svg id="Layer_1" data-name="Layer 1" xmlns="http://www.w3.org/2000/svg" viewBox="0 0 251.1 233.83"><title>logo</title><path d="M231.28,178.05,194.36,23a4,4,0,0,0-4.86-3L34.49,57a4,4,0,0,0-3,4.86l16.83,70.68a4,4,0,1,0,7.85-1.87L40.29,63.88l147.16-35,35,147.16L75.33,211l-2.89-12.15a19.26,19.26,0,1,0-8.07.95l4,17a4,4,0,0,0,4.86,3l155-36.92A4,4,0,0,0,231.28,178.05ZM54.85,180.67A11.36,11.36,0,1,1,66.21,192,11.37,11.37,0,0,1,54.85,180.67Z"/><path d="M129.95,172.53a37.41,37.41,0,0,1-20.16-5.61,31.28,31.28,0,0,1-12.86-16.2L96.7,150,113.25,139h2.27l.22.59a18.26,18.26,0,0,0,6.42,9,13.43,13.43,0,0,0,7.78,2.35,11.25,11.25,0,0,0,7.77-2.67,9.67,9.67,0,0,0,3-7.37c0-6.66-7.44-10.39-16-14.71-5.72-2.87-11.64-5.84-16.3-10.08-5.4-4.92-8-10.69-8-17.63a27.12,27.12,0,0,1,8.27-19.9,28.77,28.77,0,0,1,20-7.69C140,70.82,148,75.28,156,86.24l.53.73L140.78,98.63h-2.12l-.27-.37c-2.62-3.57-6.38-5.79-9.81-5.79-3.94,0-5.93,2-5.93,5.94,0,3.48,5.3,5.91,12,9,12,5.5,28.36,13,28.36,33.42a30.46,30.46,0,0,1-2.5,12.1,31.7,31.7,0,0,1-6.92,10.1A33.41,33.41,0,0,1,129.95,172.53Z"/><path d="M157.63,85.7l1.07,1.46-1.45,1.08L145.89,96.6c.29.34.58,1,.86,1h1.37l14.78-10.9c-6.23-8.5-12.47-13.22-21-14.6a27.88,27.88,0,0,1,3.41,1.69C149.61,76.33,153.53,80.12,157.63,85.7Z"/><path d="M130.39,149.84c-3.09-1.73-5.92-5.2-7.87-10.2h-1.37l-2.63,1.82C121.78,148,126.61,149.72,130.39,149.84Z"/><path d="M169.74,140.83c0-31.48-40.37-31.48-40.37-42.42a7.16,7.16,0,0,1,1.56-4.88,7.61,7.61,0,0,0-1.45-.15,5.1,5.1,0,0,0-3.88,1.3,5.34,5.34,0,0,0-1.14,3.73c0,2.9,5.32,5.34,11.48,8.17,5.85,2.69,13.14,6,18.82,11.22a30.4,30.4,0,0,1,7.21,9.57,32.29,32.29,0,0,1,.28,25.91,32.6,32.6,0,0,1-7.12,10.39,33.57,33.57,0,0,1-11.51,7.41C159,168.36,169.74,155.4,169.74,140.83Z"/></svg>